<?xml version="1.0" encoding="UTF-8"?>
<svg id="Ebene_1" data-name="Ebene 1" xmlns="http://www.w3.org/2000/svg" xmlns:xlink="http://www.w3.org/1999/xlink" viewBox="0 0 17.64 17.64">
  <defs>
    <style>
      .cls-1, .cls-2 {
        fill: none;
      }

      .cls-3 {
        fill: #3c3c3c;
      }

      .cls-2 {
        clip-path: url(#clippath);
      }
    </style>
    <clipPath id="clippath">
      <rect class="cls-1" width="17.64" height="17.64"/>
    </clipPath>
  </defs>
  <g class="cls-2">
    <path id="Pfad_1" data-name="Pfad 1" class="cls-3" d="m8.84,11.69c1.61,0,2.91-1.3,2.91-2.91,0-1.61-1.3-2.91-2.91-2.91s-2.91,1.3-2.91,2.91h0c0,1.61,1.3,2.91,2.91,2.91h0"/>
    <path id="Pfad_2" data-name="Pfad 2" class="cls-3" d="m17.51,5.19c-.14-3.17-1.9-4.93-5.07-5.08-.93-.04-1.23-.05-3.6-.05s-2.66,0-3.6.05C2.07.26.31,2.01.17,5.19c-.04.93-.05,1.23-.05,3.6s0,2.67.05,3.6c.15,3.17,1.9,4.93,5.08,5.08.93.04,1.23.05,3.6.05s2.67,0,3.6-.05c3.17-.15,4.93-1.9,5.07-5.08.04-.93.05-1.23.05-3.6s0-2.67-.05-3.6M1.73,12.2s0-.08,0-.11c0,.04,0,.07,0,.11m-.03-.77v-.06.06m0-.53h0m0-.45v-.28.28m7.15-6.16c2.47,0,4.48,2,4.48,4.48,0,2.47-2,4.48-4.48,4.48-2.47,0-4.48-2-4.48-4.48,0,0,0,0,0,0,0-2.47,2.01-4.48,4.48-4.48m3.61-.18c0-.58.47-1.05,1.05-1.05.58,0,1.05.47,1.05,1.05s-.47,1.05-1.05,1.05c-.58,0-1.05-.47-1.05-1.05,0,0,0,0,0,0m3.49,1.13c0,.21.02.39.02.57,0-.18-.01-.36-.02-.57-.01-.27-.04-.55-.09-.82.05.27.08.55.09.82m0,7.05c-.11,2.34-1.21,3.47-3.58,3.58-.92.04-1.2.05-3.53.05s-2.61,0-3.53-.05c-2.07-.09-3.17-.97-3.49-2.76.32,1.79,1.42,2.66,3.49,2.76.92.04,1.2.05,3.53.05s2.61,0,3.53-.05c2.37-.11,3.47-1.23,3.58-3.58.04-.92.05-1.19.05-3.53,0,2.33,0,2.61-.05,3.53m.03-6.41c0,.12,0,.25,0,.39,0-.14,0-.26,0-.39"/>
  </g>
</svg>