<?xml version="1.0" encoding="UTF-8"?>
<svg id="Ebene_1" data-name="Ebene 1" xmlns="http://www.w3.org/2000/svg" viewBox="0 0 377.43 203.59">
  <defs>
    <style>
      .cls-1 {
        fill: #fff;
      }
    </style>
  </defs>
  <path class="cls-1" d="m126.57,35.72c.13-.25.28-.53.45-.84l.48-.87L80.61,7.62l-1.09,2.05c-.39.73-.74,1.38-1.08,2.04l-18.15,35.45-.24.48c-.23.47-.45.91-.71,1.28-.22.3-.47.47-.69.44-.22-.02-.45-.24-.62-.59-.23-.49-.39-1.03-.56-1.61l-3.73-12.28c-2.22-7.32-4.45-14.65-6.68-21.97-.19-.62-.42-1.21-.66-1.84-.12-.3-.24-.62-.37-.96l-.41-1.11L6.28,31.66l.69,1.82c.25.67.47,1.27.72,1.86l5.2,12.29c8.32,19.65,16.92,39.97,25.43,59.93.77,1.8.83,3.39.2,5.29-4.24,12.86-8.5,25.95-12.62,38.61l-3.24,9.96c-.18.56-.35,1.12-.52,1.71l-.46,1.54.62.41c13.89,9.19,27.59,18.24,41.28,27.25l.76.5.57-.71c.11-.14.2-.24.27-.32.17-.19.34-.39.42-.69.24-.86.46-1.72.66-2.59,4.92-21.4,10.43-41,16.83-59.91,11.83-34.93,25.79-64.87,42.7-91.52.26-.41.49-.84.76-1.35Z"/>
  <path class="cls-1" d="m186.08,188.92c-5.78-24.54-9.24-46.93-10.59-68.46-.87-13.78-.8-26.43.21-38.68,1-12.15,2.81-23.23,5.54-33.85.42-1.62.19-2.97-.72-4.38-1.96-3.04-4.63-5.53-8.15-7.62-7.62-4.52-16.56-6.87-27.32-7.17-1.75-.03-2.73,1.04-3.37,1.77-14.11,15.91-25.23,32.11-34,49.51-8.51,16.89-15.18,35.5-21,58.55-.55,2.19.34,3.45,1.39,4.5,7.32,7.28,14.62,14.57,21.92,21.87l11.02,11.01c.3.3.62.52.99.77.17.12.36.25.57.4l1.26.92.83-4.05c.41-1.96.79-3.83,1.17-5.69.25-1.21.49-2.42.73-3.63.49-2.47.99-4.94,1.52-7.4.34-1.59.38-1.61,2.04-1.32.16.03.33.08.49.12l6.1,1.67c5.95,1.63,11.89,3.26,17.83,4.9q1.65.46,1.66,2.19c.01,3.83,0,7.65,0,11.48v8.33s31.19,9.99,31.19,9.99l-.76-3.36c-.21-.91-.37-1.65-.55-2.39Zm-27.51-63.38c-.02.87-.19,1.02-.19,1.02,0,0-.2.16-1.15,0-2.49-.42-4.98-.88-7.46-1.33l-4.94-.9c-1.84-.33-3.67-.67-5.51-.99-.93-.16-2.49-.43-2.68-.74-.19-.3.22-1.83.44-2.65l10.91-40.5c.06-.23.13-.46.2-.7.07-.23.14-.45.2-.68.1-.36.23-.62,1-.59.75.03.87.33.94.68.21,1.12.4,2.25.59,3.37l7.56,43.11c.05.26.07.52.09.72l.02.15Z"/>
  <path class="cls-1" d="m288.16,143.58c.96-2.01.51-3.54-.12-4.89-9.98-21.23-20.97-41.65-32.67-60.69-8.07-13.13-16.76-26.09-25.83-38.51-.67-.91-1.78-2.44-4.13-1.95-12.39,2.57-21.54,5.69-29.68,10.1-3.7,2-6.47,4.04-8.73,6.41-1.19,1.24-1.98,2.67-2.42,4.36-3.81,14.69-5.64,30-5.59,46.8.03,10.16.79,20.6,2.33,31.92,2.32,17.08,6.06,34.91,11.41,54.53.14.51.34.99.53,1.46.09.21.18.43.26.66l.26.68.72-.03c.43-.02.84-.03,1.24-.05.87-.03,1.69-.06,2.52-.13,5.92-.55,11.84-1.11,17.77-1.67l7.11-.68c3.32-.32,6.65-.64,9.97-.94.67-.06,2.71-.24,2.57-2.8-.22-4.06-.42-8.12-.61-12.18-.13-2.8-.27-5.61-.41-8.41q-.09-1.84,1.44-2.56c3.74-1.75,7.4-3.43,10.88-5.01q1.88-.85,3.08.94c1.73,2.57,3.46,5.14,5.18,7.71l12.14,18.05.8-1.39c.16-.29.31-.53.44-.74.26-.43.45-.76.61-1.1l5.09-10.76c4.52-9.55,9.19-19.42,13.83-29.11Zm-62.56-4.52c-.59,1.03-.8,1.21-1.32,1.12-.44-.07-.53-.13-.59-1.25-.01-.29-.03-.57-.07-.83-1.56-10.06-3.11-20.3-4.6-30.19l-.48-3.18c-1.36-9-2.7-18-4.04-27l-.04-.24c-.08-.52-.16-1.02-.14-1.47.02-.54.03-.86,1.13-.9l.04.02c.26.15.61.36.81.6.48.58.89,1.22,1.32,1.91.17.26.33.52.5.78,1.91,2.91,3.82,5.82,5.73,8.73,5.23,7.98,10.64,16.22,16.04,24.29,1.15,1.71,1.16,2.82.06,4.54-3.22,5.04-6.42,10.22-9.51,15.23-1.52,2.46-3.03,4.91-4.56,7.37-.1.15-.19.32-.28.48Z"/>
  <path class="cls-1" d="m372,173.85c-.71-5.62-1.4-11.23-2.09-16.85-.57-4.61-1.14-9.22-1.71-13.83-.93-7.45-1.87-14.89-2.8-22.34-1.25-9.92-2.49-19.83-3.73-29.75-1.01-8.09-2-16.18-2.99-24.27-.81-6.58-1.62-13.17-2.43-19.75-.05-.4-.19-.75-.34-1.11-.06-.15-.13-.32-.2-.52l-.49-1.35-1.84,1.54c-.47.39-.88.73-1.28,1.09l-34.44,31.31c-1.48,1.34-1.94,1.42-2.08,1.4-.13-.03-.51-.29-1.27-2.11-1.96-4.69-3.92-9.39-5.87-14.08-1.86-4.46-3.71-8.91-5.57-13.37-.23-.56-.49-1.11-.81-1.77-.16-.33-.33-.7-.52-1.11l-.96-2.06-.87,2.09c-.15.36-.28.66-.39.92-.21.48-.36.83-.48,1.18l-5.53,16.15c-5.02,14.66-10.04,29.31-15.08,43.96-.55,1.59-.46,2.95.27,4.41,1.86,3.73,3.71,7.46,5.55,11.2,2.32,4.72,4.73,9.59,7.14,14.37.91,1.8.92,3.19.04,4.98-5.06,10.28-10.13,20.77-15.04,30.92l-4.25,8.78c-.27.57-.52,1.15-.8,1.8l-.9,2.07,1.14.29c3.32.86,6.6,1.72,9.87,2.58,7.12,1.87,14.48,3.79,21.78,5.58l1.12.27.12-1.14c.03-.31.06-.57.09-.81.06-.48.1-.86.11-1.24.09-3.07.18-6.15.27-9.22.11-3.72.21-7.44.33-11.16l.02-.79c.12-3.9.24-7.93.46-11.89.01-.21.2-.57.34-.72.14.02.48.13,1.01.46.13.08.31.36.47.6.1.15.2.3.3.44l4.22,5.74c2.62,3.56,5.24,7.13,7.86,10.69.28.38.58.75.94,1.19l1.68,2.09.6-1.68c.09-.25.17-.46.25-.66.16-.41.3-.77.39-1.17.92-3.83,1.84-7.66,2.76-11.5l1.18-4.95c.23-.96.46-1.92.72-2.88.14-.53.28-.63.32-.62.38.05.87.31,1.26.66.19.17.36.5.54.85.09.18.18.36.28.53l19.1,33.02c.32.56.66,1.11,1.02,1.68l1.05,1.71.86-.56c.14-.09.26-.16.37-.22.26-.15.5-.3.73-.52l6.17-6.16c3.66-3.65,7.31-7.31,10.98-10.95,1.22-1.21,1.21-2.54,1.1-3.43Z"/>
  <g>
    <path d="m376.82,170.71c-.73-5.71-1.49-11.41-2.22-17.11-.55-4.35-1.05-8.7-1.61-13.05-.9-6.97-1.84-13.94-2.74-20.91-.72-5.63-1.37-11.27-2.11-16.89-.71-5.47-1.52-10.92-2.22-16.38-.99-7.61-1.9-15.22-2.88-22.83-.78-6.1-1.63-12.19-2.43-18.28-.33-2.53-.6-5.07-.94-7.61-.29-2.18-1.77-2.75-3.56-1.41-.32.24-.6.52-.9.79-3.95,3.49-7.9,6.99-11.85,10.48-7.71,6.83-15.42,13.66-23.13,20.48-.99.88-2.05,1.69-3.22,2.66-.29-.62-.46-.96-.6-1.32-2.84-7.12-5.66-14.25-8.51-21.37-1.78-4.45-3.59-8.89-5.4-13.33-.38-.93-.89-1.73-2.09-1.62-1.08.1-1.39.95-1.69,1.79-1.59,4.44-3.21,8.86-4.75,13.31-2.9,8.37-5.74,16.76-8.63,25.13-2.79,8.07-5.6,16.14-8.42,24.2-.49,1.39-1.08,2.74-1.73,4.37-.47-.66-.73-.96-.92-1.3-2.59-4.5-5.16-9.01-7.74-13.51-3.86-6.72-7.48-13.59-11.64-20.12-7.34-11.54-15.04-22.85-22.51-34.3-1-1.53-2.09-2.17-3.92-2.03-6.26.48-12.35,1.75-18.16,4.08-7.04,2.82-14,5.84-21,8.77-.13.05-.31,0-.22,0-3.08-3.02-5.96-6.01-9.03-8.8-4.39-3.99-9.57-6.59-15.23-8.33-6.47-1.99-13.21-2.27-19.81-3.43-3.96-.7-6.38.62-8.48,3.62-.94,1.35-2.1,2.54-3.19,3.83-.91-.5-1.61-.87-2.3-1.27-16.02-9.19-32.05-18.39-48.07-27.59-.55-.32-1.1-.66-1.67-.94-1.79-.88-2.54-.67-3.56,1.01-.29.48-.56.97-.81,1.47-5.11,9.95-10.21,19.91-15.33,29.85-.68,1.32-1.44,2.59-2.36,4.23-.42-.89-.69-1.35-.86-1.85-1.5-4.55-2.98-9.11-4.46-13.66-1.83-5.62-3.63-11.25-5.51-16.85-.72-2.15-2.09-2.53-4.03-1.28-.4.26-.78.55-1.2.79-9,5.18-17.99,10.36-26.99,15.53-4.78,2.75-9.58,5.46-14.34,8.24-2,1.17-2.21,1.83-1.36,3.91,2.16,5.24,4.36,10.47,6.57,15.7,2.89,6.84,5.82,13.67,8.71,20.52,2.51,5.96,4.98,11.94,7.49,17.9,3.13,7.44,6.27,14.87,9.43,22.3.56,1.32.66,2.57.18,3.95-1.35,3.93-2.63,7.88-3.92,11.83-2.51,7.66-4.99,15.34-7.5,23-1.76,5.39-3.56,10.77-5.32,16.16-.67,2.05-.33,3.01,1.46,4.27,1.43,1.01,2.88,2.02,4.35,2.98,5.09,3.3,10.22,6.57,15.3,9.88,4.48,2.92,8.93,5.88,13.41,8.81,2.74,1.79,5.5,3.54,8.24,5.33,1.87,1.22,3.67,2.55,5.58,3.7,2.07,1.25,3.24.77,3.96-1.52.6-1.9,1.08-3.84,1.64-5.76,3.71-12.81,7.43-25.61,11.16-38.42.64-2.18,1.3-4.36,2.06-6.87,14.8,14.22,29.32,28.17,44.23,42.5,1.97-8.78,3.81-17,5.72-25.55,5.81,1.46,11.34,2.85,16.98,4.26,0,.95.03,1.65,0,2.36-.22,5.19-.42,10.39-.67,15.58-.14,2.83-.04,3.05,2.66,3.95,12.28,4.12,24.56,8.22,36.83,12.37,1.81.61,3.57.69,5.42.4,4.9-.77,9.8-1.47,14.7-2.22,9.32-1.43,18.64-2.86,27.96-4.33,2.52-.4,3.36-1.66,3.02-4.1-.2-1.42-.29-2.85-.4-4.27-.11-1.35-.19-2.71-.26-4.06-.23-4.15-.49-8.3-.65-12.45-.02-.53.31-1.38.73-1.59,2.47-1.25,5.01-2.37,7.57-3.55.49.63.85,1.05,1.16,1.49,4.59,6.63,9.16,13.27,13.76,19.89,1.27,1.83,2.31,4.04,4.03,5.26,1.73,1.22,4.19,1.42,6.33,2.07.15.05.3.1.46.14,10.26,2.75,20.51,5.5,30.77,8.24.54.14,1.08.33,1.63.39,1.69.18,2.53-.53,2.66-2.26.17-2.23.3-4.46.45-6.7.36-5.34.71-10.69,1.1-16.03.1-1.37.35-2.74.58-4.44.54.67.87,1.01,1.12,1.4,3.53,5.42,7.04,10.85,10.58,16.27,1,1.54,2.07,3.04,3.08,4.58.5.75,1.17,1.08,2.05.88.99-.22,1.07-1.03,1.17-1.86.67-5.7,1.33-11.41,2.04-17.1.24-1.91.62-3.8.94-5.7,1.18,1.3,1.91,2.61,2.68,3.9,3.63,6.11,7.25,12.23,10.9,18.33,1.72,2.88,3.44,5.76,5.25,8.59.95,1.5,2.3,1.64,3.62.52.49-.41.9-.91,1.35-1.37,2.93-3.05,5.87-6.11,8.79-9.17,4.25-4.45,8.48-8.92,12.75-13.34.78-.81,1.21-1.68,1.09-2.78-.19-1.83-.37-3.66-.6-5.48Zm-294.71-42.39c-6.67,19.7-12.19,39.73-16.86,60-.2.86-.42,1.7-.65,2.55-.04.14-.19.25-.51.65-13.69-9.01-27.39-18.06-41.28-27.25.26-.89.49-1.71.75-2.52,5.27-16.19,10.53-32.39,15.86-48.56.69-2.1.65-3.93-.23-6-10.26-24.05-20.44-48.13-30.63-72.21-.37-.87-.68-1.76-1.1-2.85,12.49-7.2,24.87-14.33,37.58-21.65.39,1.04.75,1.88,1.01,2.75,3.42,11.24,6.83,22.49,10.25,33.73.23.76.42,1.55.76,2.27.67,1.42,2.1,1.57,3.02.31.42-.58.71-1.25,1.04-1.89,6.05-11.82,12.1-23.63,18.15-35.45.5-.98,1.04-1.95,1.69-3.17,15.13,8.52,30.06,16.93,45.13,25.41-.5.91-.8,1.54-1.18,2.14-18.22,28.73-31.91,59.58-42.8,91.74Zm75.04,55.68v-2.77c0-5.44.01-10.88,0-16.31,0-2.38-.11-2.53-2.39-3.16-7.93-2.19-15.88-4.36-23.81-6.53-.23-.06-.46-.13-.7-.18-2.14-.38-2.72-.05-3.19,2.09-.79,3.67-1.5,7.36-2.25,11.04-.54,2.64-1.09,5.29-1.69,8.21-.63-.46-1.09-.72-1.45-1.08-10.98-10.96-21.94-21.94-32.94-32.88-1.05-1.05-1.52-1.97-1.13-3.54,5.08-20.13,11.56-39.75,20.92-58.34,9.05-17.97,20.53-34.27,33.85-49.3.7-.79,1.37-1.47,2.59-1.43,9.5.26,18.57,2.12,26.84,7.03,3.13,1.86,5.82,4.2,7.82,7.3.74,1.15.95,2.2.59,3.59-2.87,11.17-4.63,22.52-5.57,34.02-1.06,12.94-1.02,25.88-.21,38.82,1.46,23.19,5.3,46.02,10.62,68.62.27,1.14.52,2.28.92,4.04-9.98-3.2-19.32-6.19-28.83-9.23Zm110.11.83c-2.92-4.34-5.59-8.31-8.27-12.28-2.72-4.05-5.43-8.11-8.16-12.15-1.5-2.22-1.95-2.36-4.33-1.29-3.64,1.65-7.27,3.32-10.9,5.01-2.07.97-2.13,1.2-2.01,3.52.35,6.87.64,13.74,1.02,20.6.07,1.32-.53,1.65-1.66,1.75-4.93.44-9.86.94-14.8,1.41-6.68.64-13.37,1.27-20.05,1.89-1.18.11-2.38.12-3.72.18-.28-.73-.58-1.36-.76-2.03-4.89-17.91-8.88-36-11.39-54.4-1.44-10.55-2.29-21.15-2.32-31.79-.04-15.72,1.6-31.28,5.56-46.54.4-1.53,1.1-2.8,2.17-3.92,2.46-2.58,5.38-4.53,8.48-6.22,9.23-5,19.19-7.88,29.41-10,1.57-.33,2.31.45,3.12,1.56,9.11,12.47,17.7,25.29,25.79,38.44,12.03,19.57,22.85,39.8,32.62,60.59.65,1.39.85,2.53.13,4.03-6.36,13.27-12.63,26.58-18.93,39.87-.23.49-.54.95-1.01,1.77Zm102.87-8.21c-5.73,5.69-11.44,11.41-17.16,17.11-.21.21-.51.34-.93.62-.53-.88-1.04-1.67-1.51-2.49-6.37-11-12.73-22.01-19.1-33.02-.32-.55-.56-1.21-1.01-1.62-.48-.44-1.15-.82-1.79-.91-.85-.12-1.23.61-1.42,1.35-.27,1-.51,2.01-.75,3.02-1.3,5.44-2.6,10.88-3.91,16.32-.12.51-.35.99-.61,1.72-.6-.75-1.06-1.28-1.48-1.85-4.03-5.47-8.06-10.95-12.08-16.43-.33-.45-.6-1.02-1.04-1.3-.56-.35-1.37-.75-1.88-.58-.48.17-.97,1.04-1,1.63-.23,4.23-.35,8.47-.48,12.7-.21,6.79-.4,13.59-.6,20.38-.02.55-.11,1.09-.2,1.98-10.57-2.58-20.93-5.38-31.64-8.15.47-1.07.82-1.92,1.22-2.75,6.41-13.24,12.79-26.5,19.29-39.69,1.03-2.09.99-3.83-.04-5.87-4.28-8.49-8.43-17.06-12.68-25.57-.62-1.25-.67-2.33-.22-3.64,6.9-20.03,13.75-40.07,20.62-60.11.18-.52.42-1.02.84-2.04.56,1.2.97,2.01,1.32,2.84,3.82,9.15,7.63,18.3,11.45,27.45,1.39,3.34,2.26,3.52,4.95,1.07,11.48-10.44,22.96-20.88,34.44-31.31.58-.53,1.2-1.02,1.99-1.68.22.61.44,1,.49,1.41,1.82,14.67,3.6,29.35,5.42,44.02,2.16,17.37,4.36,34.73,6.53,52.09,1.28,10.23,2.52,20.46,3.81,30.69.13,1.03-.05,1.83-.81,2.6Z"/>
    <path d="m218.9,77.91c-.61-.93-1.17-1.92-1.88-2.77-.42-.51-1.08-.81-1.34-1-1.72,0-2.36.57-2.41,1.87-.02.63.09,1.27.19,1.9,1.34,9,2.69,18,4.04,27,1.68,11.13,3.35,22.26,5.08,33.38.17,1.08-.2,2.62,1.48,2.91,1.53.26,2-1.07,2.62-2.06,4.69-7.53,9.29-15.11,14.06-22.58,1.31-2.05,1.29-3.61-.07-5.64-7.33-10.96-14.52-22-21.77-33.01Zm8.15,47.53c-.19-.03-.37-.07-.56-.1-1.7-10.65-3.4-21.31-5.09-31.96.2-.08.39-.16.59-.24,4.09,6.9,8.19,13.79,12.35,20.8-2.45,3.87-4.87,7.68-7.29,11.49Z"/>
    <path d="m152.15,83.23c-.3-1.73-.58-3.47-.91-5.19-.19-1.01-.88-1.46-1.88-1.5-.99-.04-1.72.3-2,1.32-.13.46-.28.92-.4,1.38-2.57,9.57-5.14,19.14-7.72,28.7-1.06,3.93-2.13,7.87-3.19,11.8-1,3.72-.84,3.95,3.03,4.63,2.44.43,4.87.87,7.31,1.31,3.54.64,7.07,1.31,10.61,1.9,1.88.32,2.49-.19,2.52-2.05-.03-.21-.06-.61-.12-1.01-2.41-13.77-4.83-27.54-7.25-41.31Zm-9.18,35.03c1.87-7.96,3.67-15.67,5.48-23.37.15,0,.3.01.45.02,1.2,8.22,2.39,16.45,3.67,25.25-3.4-.67-6.32-1.25-9.61-1.9Z"/>
  </g>
</svg>