<?xml version="1.0" encoding="UTF-8"?>
<svg id="Ebene_1" data-name="Ebene 1" xmlns="http://www.w3.org/2000/svg" viewBox="0 0 24.81 17.44">
  <defs>
    <style>
      .cls-1 {
        fill: #3c3c3c;
      }
    </style>
  </defs>
  <path id="Icon_awesome-youtube" data-name="Icon awesome-youtube" class="cls-1" d="m24.29,2.73c-.29-1.07-1.12-1.92-2.19-2.21-1.93-.52-9.69-.52-9.69-.52,0,0-7.76,0-9.69.52C1.64.81.8,1.65.52,2.73c-.52,1.95-.52,6.01-.52,6.01,0,0,0,4.06.52,6.01.29,1.07,1.12,1.89,2.19,2.17,1.93.52,9.69.52,9.69.52,0,0,7.76,0,9.69-.52,1.07-.28,1.91-1.11,2.19-2.17.52-1.95.52-6.01.52-6.01,0,0,0-4.06-.52-6.01h0Zm-14.42,9.7v-7.37l6.48,3.69s-6.48,3.69-6.48,3.69Z"/>
</svg>